# xmcd CD database file
#
# Track frame offsets:
#	183
#	15108
#	35945
#	50143
#	67855
#	84240
#	98413
#	114203
#	131215
#	146510
#	166655
#	182955
#	202018
#	223313
#	239455
#	253750
#	266428
#	280175
#
# Disc length: 3900 seconds
#
# Revision: 1
# Processed by: cddbd v1.5.1PL0 Copyright (c) Steve Scherf et al.
# Submitted via: CDex 1.51
#
DISCID=020f3a12
DTITLE=Various Artist - Gefühle - Vol.4 - Die schönsten romantischen Schlager
DYEAR=1900
DGENRE=Oldies
TTITLE0=Bernd Clüver - Der Junge mit der Mundharmonika
TTITLE1=Mary Roos - So leb dein Leben
TTITLE2=Bata Illic - Michaela
TTITLE3=Paola - Blue Bayou
TTITLE4=Ulli Mrtin - Ich träume mit offenen Augen von dir
TTITLE5=Monica Morrell - Ich fange nie mehr was an einem Sonntag an
TTITLE6=Drafi Deutscher - Weil ich dich liebe
TTITLE7=The Cats - Mit dem Abendwind kommen Lieder
TTITLE8=Karel Gott - Schicksalsmelodie
TTITLE9=Vicky Leandros - Ich hab die Liebe gesehn
TTITLE10=Udo Jürgens - Ich glaube an die Liebe
TTITLE11=Adam and Eve - Wenn die Sonne erwacht in den Bergen
TTITLE12=Christian Anders - Es fährt ein Zug nach nirgendwo
TTITLE13=Daliah Lavi - Willst du mit mir geh'n
TTITLE14=Peggy March - Es ist schwer dich zu vergessen
TTITLE15=Joe Dassin - Ich hab mich verliebt
TTITLE16=Severine - Mach die Augen zu
TTITLE17=Jean Claude Pascal - Sag adieu
EXTD=
EXTT0=
EXTT1=
EXTT2=
EXTT3=
EXTT4=
EXTT5=
EXTT6=
EXTT7=
EXTT8=
EXTT9=
EXTT10=
EXTT11=
EXTT12=
EXTT13=
EXTT14=
EXTT15=
EXTT16=
EXTT17=
PLAYORDER=
